<?xml version="1.0" encoding="utf-8"?>
<!-- Generator: Adobe Illustrator 22.0.1, SVG Export Plug-In . SVG Version: 6.00 Build 0)  -->
<svg version="1.1" id="Camada_1" xmlns="http://www.w3.org/2000/svg" xmlns:xlink="http://www.w3.org/1999/xlink" x="0px" y="0px"
	 viewBox="0 0 200 200" style="enable-background:new 0 0 200 200;" xml:space="preserve">
<style type="text/css">
	.st0{fill-opacity:0;}
</style>
<g>
	<g>
		<path d="M163.2,54.6l-27.1,0l0-13.6c0-12.5-10.2-22.6-22.7-22.6l-27.1,0c-12.5,0-22.6,10.2-22.6,22.7l0,13.6l-27.1,0
			C21.6,54.8,9.4,67,9.5,82l0.1,72.4c0,15,12.2,27.1,27.2,27.1l126.7-0.2c15,0,27.1-12.2,27.1-27.2l-0.1-72.4
			C190.4,66.7,178.2,54.6,163.2,54.6z M127.1,72.8l0.1,90.5l-54.3,0.1l-0.1-90.5L127.1,72.8z M81.8,41.2c0-2.5,2-4.5,4.5-4.5l27.1,0
			c2.5,0,4.5,2,4.5,4.5l0,13.6l-36.2,0.1L81.8,41.2z M27.7,154.4L27.6,82c0-5,4-9.1,9-9.1l18.1,0l0.1,90.5l-18.1,0
			C31.7,163.4,27.7,159.4,27.7,154.4z M172.4,154.1c0,5-4,9.1-9,9.1l-18.1,0l-0.1-90.5l18.1,0c5,0,9.1,4,9.1,9L172.4,154.1z"/>
	</g>
</g>
</svg>
