<?xml version="1.0" encoding="utf-8"?>
<!-- Generator: Adobe Illustrator 22.0.1, SVG Export Plug-In . SVG Version: 6.00 Build 0)  -->
<svg version="1.1" id="Camada_1" xmlns="http://www.w3.org/2000/svg" xmlns:xlink="http://www.w3.org/1999/xlink" x="0px" y="0px"
	 viewBox="0 0 200 200" style="enable-background:new 0 0 200 200;" xml:space="preserve">
<style type="text/css">
	.st0{fill-opacity:0;}
</style>
<g>
	<g>
		<path d="M187.4,85.3c0.3-0.5,0.5-1.1,0.6-1.7l6.8-36.2c0.9-5-2.4-9.8-7.4-10.7c-5-0.9-9.8,2.4-10.7,7.4l0,0l-3.3,18.1
			C151.3,21.8,100.6,6.9,60.1,29.1c-16.5,9-29.5,23.4-36.8,40.7c-1.9,4.6,0.4,9.9,5,11.8c4.6,1.9,9.9-0.3,11.8-4.9c0,0,0-0.1,0-0.1
			c10-24.5,34-40.4,60.4-39.9c23.3-0.1,44.8,12.3,56.5,32.4l-14.9-2.4c-5-0.8-9.7,2.6-10.5,7.6c-0.8,5,2.6,9.7,7.6,10.5l38.5,6.4
			h1.4c1.1,0,2.1-0.2,3.1-0.5c0.3-0.1,0.6-0.3,0.9-0.5c0.6-0.2,1.3-0.6,1.8-1l0.7-0.9c0.5-0.4,0.9-0.9,1.3-1.4
			C187.2,86.2,187.3,85.8,187.4,85.3z"/>
		<path d="M171.3,118.7c-4.6-1.9-9.9,0.3-11.8,4.9c0,0,0,0.1-0.1,0.1c-10,24.2-33.8,39.9-60.1,39.5c-23.3,0.1-44.8-12.3-56.5-32.4
			l14.9,2.4h1.4c5,0.4,9.4-3.3,9.8-8.3c0.4-5-3.3-9.4-8.3-9.8L22.3,109c-1-0.2-2-0.2-3,0h-0.7c-1,0.3-2,0.7-2.9,1.3
			c-0.6,0.5-1.2,1-1.6,1.6l-0.8,0.9c-0.3,0.5-0.5,1.1-0.6,1.7c-0.3,0.5-0.5,1-0.6,1.5l-6.8,36.2C4,157.2,7,162,11.8,163.2
			c0.2,0,0.4,0.1,0.6,0.1H14c4.4,0.1,8.3-3.1,9-7.4l3.3-18.1c22.1,40.4,72.8,55.3,113.2,33.2c16.5-9,29.5-23.4,36.8-40.7
			C178.2,125.7,175.9,120.5,171.3,118.7z"/>
	</g>
</g>
</svg>
