<?xml version="1.0" encoding="utf-8"?>
<!-- Generator: Adobe Illustrator 22.0.1, SVG Export Plug-In . SVG Version: 6.00 Build 0)  -->
<svg version="1.1" id="Camada_1" xmlns="http://www.w3.org/2000/svg" xmlns:xlink="http://www.w3.org/1999/xlink" x="0px" y="0px"
	 viewBox="0 0 200 200" style="enable-background:new 0 0 200 200;" xml:space="preserve">
<style type="text/css">
	.st0{fill-opacity:0;}
</style>
<g>
	<g>
		<path d="M185,54.8c-3.2-5.5-9-8.9-15.4-9H53.8l-5.2-20.4c-1.1-4.1-4.8-6.8-9-6.7H21.4c-5,0-9,4.1-9,9s4.1,9,9,9h11.2l25,92.8
			c1.1,4.1,4.8,6.8,9,6.7h81.4c3.4,0,6.5-1.9,8.1-5l29.7-59.4C188.5,66.4,188.2,60,185,54.8z M142.5,118.1h-69L58.8,63.8h110.8
			L142.5,118.1z"/>
		<circle cx="62.2" cy="167.9" r="13.6"/>
		<circle cx="152.6" cy="167.9" r="13.6"/>
	</g>
</g>
</svg>
