<?xml version="1.0" encoding="utf-8"?>
<!-- Generator: Adobe Illustrator 22.0.1, SVG Export Plug-In . SVG Version: 6.00 Build 0)  -->
<svg version="1.1" id="Camada_1" xmlns="http://www.w3.org/2000/svg" xmlns:xlink="http://www.w3.org/1999/xlink" x="0px" y="0px"
	 viewBox="0 0 200 200" style="enable-background:new 0 0 200 200;" xml:space="preserve">
<style type="text/css">
	.st0{fill-opacity:0;}
</style>
<g>
	<path d="M121.1,172.4h-1.9c-7.9-0.8-14.3-6.6-15.9-14.3L79,45.7l-25,57.9c-1.4,3.3-4.7,5.4-8.3,5.4H18.6c-5,0-9-4.1-9-9
		c0-5,4.1-9,9-9h21.2l22.7-52.4c4-9.2,14.6-13.4,23.8-9.4c5.4,2.3,9.3,7.1,10.5,12.8L121,154.3l25-57.7c1.4-3.4,4.7-5.6,8.3-5.6
		h27.1c5,0,9,4.1,9,9c0,5-4.1,9-9,9h-21.2l-22.7,52.4C134.7,168,128.3,172.3,121.1,172.4z"/>
</g>
</svg>
