<?xml version="1.0" encoding="utf-8"?>
<!-- Generator: Adobe Illustrator 22.0.1, SVG Export Plug-In . SVG Version: 6.00 Build 0)  -->
<svg version="1.1" id="Camada_1" xmlns="http://www.w3.org/2000/svg" xmlns:xlink="http://www.w3.org/1999/xlink" x="0px" y="0px"
	 viewBox="0 0 200 200" style="enable-background:new 0 0 200 200;" xml:space="preserve">
<style type="text/css">
	.st0{fill-opacity:0;}
</style>
<g>
	<g>
		<path d="M187.4,29.9c-3.7-3.3-9.5-2.9-12.8,0.8l-16.9,19.5l-5.7-6.4c-3.3-3.7-9.1-4.1-12.8-0.8c-3.7,3.3-4.1,9.1-0.8,12.8
			L151,69.9c1.7,1.9,4.2,3,6.8,3c2.6,0,5-1.1,6.7-3.1l23.6-27.1C191.5,38.9,191.1,33.2,187.4,29.9z"/>
		<path d="M81.9,91c20,0,36.2-16.2,36.2-36.2s-16.2-36.2-36.2-36.2S45.7,34.8,45.7,54.8S61.9,91,81.9,91z M81.9,36.7
			c10,0,18.1,8.1,18.1,18.1s-8.1,18.1-18.1,18.1s-18.1-8.1-18.1-18.1S71.9,36.7,81.9,36.7z"/>
		<path d="M81.9,109c-35,0-63.3,28.4-63.3,63.3c0,5,4.1,9,9,9s9-4.1,9-9c0-25,20.3-45.2,45.2-45.2s45.2,20.3,45.2,45.2
			c0,5,4.1,9,9,9s9-4.1,9-9C145.2,137.4,116.9,109,81.9,109z"/>
	</g>
</g>
</svg>
