<?xml version="1.0" encoding="utf-8"?>
<!-- Generator: Adobe Illustrator 22.0.1, SVG Export Plug-In . SVG Version: 6.00 Build 0)  -->
<svg version="1.1" id="Camada_1" xmlns="http://www.w3.org/2000/svg" xmlns:xlink="http://www.w3.org/1999/xlink" x="0px" y="0px"
	 viewBox="0 0 200 200" style="enable-background:new 0 0 200 200;" xml:space="preserve">
<style type="text/css">
	.st0{fill-opacity:0;}
</style>
<g>
	<path d="M100,9.5C50,9.5,9.5,50,9.5,100S50,190.5,100,190.5s90.5-40.5,90.5-90.5S150,9.5,100,9.5z M100,172.4
		c-40,0-72.4-32.4-72.4-72.4S60,27.6,100,27.6S172.4,60,172.4,100S140,172.4,100,172.4z"/>
	<g>
		<g>
			<circle cx="68.2" cy="63.8" r="9"/>
			<path d="M68.2,81.9c-5,0-9,4.1-9,9v45.2c0,5,4.1,9,9,9c5,0,9-4.1,9-9V91C77.3,86,73.2,81.9,68.2,81.9z"/>
		</g>
		<g>
			<path d="M104.8,73l28.7,66.7c2,4.6,7.3,6.7,11.9,4.8s6.7-7.3,4.8-11.9l-28.7-66.7c-2-4.6-7.3-6.7-11.9-4.8
				C105,63.1,102.8,68.4,104.8,73z"/>
			<path d="M107.9,97.3c-4.6-2-9.9,0.2-11.9,4.8l-13.2,30.6c-2,4.6,0.2,9.9,4.8,11.9s9.9-0.2,11.9-4.8l13.2-30.6
				C114.6,104.5,112.4,99.2,107.9,97.3z"/>
		</g>
	</g>
</g>
</svg>
